<mxfile host="app.diagrams.net" modified="2022-03-21T12:36:15.700Z" agent="5.0 (Macintosh; Intel Mac OS X 10_15_7) AppleWebKit/605.1.15 (KHTML, like Gecko) Version/15.4 Safari/605.1.15" etag="Pchfzu3WbFIQW_vZrxeu" version="17.1.3" type="github">
  <diagram id="Kqvj9SmVfZu-W88wFTyd" name="Page-1">
    <mxGraphModel dx="1399" dy="421" grid="1" gridSize="10" guides="1" tooltips="1" connect="1" arrows="1" fold="1" page="1" pageScale="1" pageWidth="827" pageHeight="1169" math="0" shadow="0">
      <root>
        <mxCell id="0" />
        <mxCell id="1" parent="0" />
        <mxCell id="PrXNfEcg6D8ps-5a2DJN-29" style="edgeStyle=none;rounded=0;orthogonalLoop=1;jettySize=auto;html=1;entryX=0.5;entryY=0;entryDx=0;entryDy=0;startArrow=none;startFill=0;endArrow=none;endFill=0;" edge="1" parent="1">
          <mxGeometry relative="1" as="geometry">
            <mxPoint x="457" y="190" as="sourcePoint" />
            <mxPoint x="457" y="230.00000000000006" as="targetPoint" />
          </mxGeometry>
        </mxCell>
        <mxCell id="PrXNfEcg6D8ps-5a2DJN-21" value="Person" style="rounded=0;whiteSpace=wrap;html=1;shadow=0;sketch=0;fillColor=default;gradientColor=none;" vertex="1" parent="1">
          <mxGeometry x="400" y="130" width="120" height="60" as="geometry" />
        </mxCell>
        <mxCell id="PrXNfEcg6D8ps-5a2DJN-25" style="edgeStyle=none;rounded=0;orthogonalLoop=1;jettySize=auto;html=1;exitX=0.5;exitY=1;exitDx=0;exitDy=0;entryX=0;entryY=0;entryDx=0;entryDy=0;startArrow=none;startFill=0;endArrow=none;endFill=0;" edge="1" parent="1" source="PrXNfEcg6D8ps-5a2DJN-22" target="PrXNfEcg6D8ps-5a2DJN-21">
          <mxGeometry relative="1" as="geometry" />
        </mxCell>
        <mxCell id="PrXNfEcg6D8ps-5a2DJN-22" value="Name" style="ellipse;whiteSpace=wrap;html=1;shadow=0;sketch=0;fillColor=default;gradientColor=none;" vertex="1" parent="1">
          <mxGeometry x="320" y="60" width="80" height="30" as="geometry" />
        </mxCell>
        <mxCell id="PrXNfEcg6D8ps-5a2DJN-26" style="edgeStyle=none;rounded=0;orthogonalLoop=1;jettySize=auto;html=1;entryX=0.5;entryY=0;entryDx=0;entryDy=0;startArrow=none;startFill=0;endArrow=none;endFill=0;" edge="1" parent="1" source="PrXNfEcg6D8ps-5a2DJN-23" target="PrXNfEcg6D8ps-5a2DJN-21">
          <mxGeometry relative="1" as="geometry" />
        </mxCell>
        <mxCell id="PrXNfEcg6D8ps-5a2DJN-23" value="Date of birth" style="ellipse;whiteSpace=wrap;html=1;shadow=0;sketch=0;fillColor=default;gradientColor=none;" vertex="1" parent="1">
          <mxGeometry x="410" y="20" width="100" height="40" as="geometry" />
        </mxCell>
        <mxCell id="PrXNfEcg6D8ps-5a2DJN-27" style="edgeStyle=none;rounded=0;orthogonalLoop=1;jettySize=auto;html=1;entryX=1;entryY=0;entryDx=0;entryDy=0;startArrow=none;startFill=0;endArrow=none;endFill=0;" edge="1" parent="1" source="PrXNfEcg6D8ps-5a2DJN-24" target="PrXNfEcg6D8ps-5a2DJN-21">
          <mxGeometry relative="1" as="geometry" />
        </mxCell>
        <mxCell id="PrXNfEcg6D8ps-5a2DJN-24" value="&lt;u&gt;ID&lt;/u&gt;" style="ellipse;whiteSpace=wrap;html=1;shadow=0;sketch=0;fillColor=default;gradientColor=none;" vertex="1" parent="1">
          <mxGeometry x="540" y="60" width="40" height="30" as="geometry" />
        </mxCell>
        <mxCell id="PrXNfEcg6D8ps-5a2DJN-28" value="d" style="ellipse;whiteSpace=wrap;html=1;aspect=fixed;shadow=0;sketch=0;fillColor=default;gradientColor=none;" vertex="1" parent="1">
          <mxGeometry x="445" y="230" width="30" height="30" as="geometry" />
        </mxCell>
        <mxCell id="PrXNfEcg6D8ps-5a2DJN-30" style="edgeStyle=none;rounded=0;orthogonalLoop=1;jettySize=auto;html=1;entryX=0.5;entryY=0;entryDx=0;entryDy=0;startArrow=none;startFill=0;endArrow=none;endFill=0;" edge="1" parent="1">
          <mxGeometry relative="1" as="geometry">
            <mxPoint x="462" y="190" as="sourcePoint" />
            <mxPoint x="462" y="230" as="targetPoint" />
          </mxGeometry>
        </mxCell>
        <mxCell id="PrXNfEcg6D8ps-5a2DJN-34" style="edgeStyle=none;rounded=0;orthogonalLoop=1;jettySize=auto;html=1;startArrow=none;startFill=0;endArrow=none;endFill=0;" edge="1" parent="1" source="PrXNfEcg6D8ps-5a2DJN-31" target="PrXNfEcg6D8ps-5a2DJN-28">
          <mxGeometry relative="1" as="geometry" />
        </mxCell>
        <mxCell id="PrXNfEcg6D8ps-5a2DJN-31" value="Student" style="rounded=0;whiteSpace=wrap;html=1;shadow=0;sketch=0;fillColor=default;gradientColor=none;" vertex="1" parent="1">
          <mxGeometry x="520" y="300" width="120" height="60" as="geometry" />
        </mxCell>
        <mxCell id="PrXNfEcg6D8ps-5a2DJN-33" style="edgeStyle=none;rounded=0;orthogonalLoop=1;jettySize=auto;html=1;entryX=0;entryY=1;entryDx=0;entryDy=0;startArrow=none;startFill=0;endArrow=none;endFill=0;" edge="1" parent="1" source="PrXNfEcg6D8ps-5a2DJN-32" target="PrXNfEcg6D8ps-5a2DJN-28">
          <mxGeometry relative="1" as="geometry" />
        </mxCell>
        <mxCell id="PrXNfEcg6D8ps-5a2DJN-79" style="edgeStyle=none;rounded=0;orthogonalLoop=1;jettySize=auto;html=1;startArrow=none;startFill=0;endArrow=none;endFill=0;" edge="1" parent="1" source="PrXNfEcg6D8ps-5a2DJN-32" target="PrXNfEcg6D8ps-5a2DJN-78">
          <mxGeometry relative="1" as="geometry" />
        </mxCell>
        <mxCell id="PrXNfEcg6D8ps-5a2DJN-87" style="edgeStyle=none;rounded=0;orthogonalLoop=1;jettySize=auto;html=1;startArrow=none;startFill=0;endArrow=none;endFill=0;" edge="1" parent="1">
          <mxGeometry relative="1" as="geometry">
            <mxPoint x="307.9258830848694" y="360" as="sourcePoint" />
            <mxPoint x="243.86792945773686" y="433.70292213803896" as="targetPoint" />
          </mxGeometry>
        </mxCell>
        <mxCell id="PrXNfEcg6D8ps-5a2DJN-32" value="Employee" style="rounded=0;whiteSpace=wrap;html=1;shadow=0;sketch=0;fillColor=default;gradientColor=none;" vertex="1" parent="1">
          <mxGeometry x="280" y="300" width="120" height="60" as="geometry" />
        </mxCell>
        <mxCell id="PrXNfEcg6D8ps-5a2DJN-35" style="edgeStyle=none;rounded=0;orthogonalLoop=1;jettySize=auto;html=1;entryX=0.5;entryY=0;entryDx=0;entryDy=0;startArrow=none;startFill=0;endArrow=none;endFill=0;" edge="1" parent="1">
          <mxGeometry relative="1" as="geometry">
            <mxPoint x="577" y="360" as="sourcePoint" />
            <mxPoint x="577" y="400" as="targetPoint" />
          </mxGeometry>
        </mxCell>
        <mxCell id="PrXNfEcg6D8ps-5a2DJN-36" value="d" style="ellipse;whiteSpace=wrap;html=1;aspect=fixed;shadow=0;sketch=0;fillColor=default;gradientColor=none;" vertex="1" parent="1">
          <mxGeometry x="565" y="400" width="30" height="30" as="geometry" />
        </mxCell>
        <mxCell id="PrXNfEcg6D8ps-5a2DJN-37" style="edgeStyle=none;rounded=0;orthogonalLoop=1;jettySize=auto;html=1;entryX=0.5;entryY=0;entryDx=0;entryDy=0;startArrow=none;startFill=0;endArrow=none;endFill=0;" edge="1" parent="1">
          <mxGeometry relative="1" as="geometry">
            <mxPoint x="582" y="360" as="sourcePoint" />
            <mxPoint x="582" y="400" as="targetPoint" />
          </mxGeometry>
        </mxCell>
        <mxCell id="PrXNfEcg6D8ps-5a2DJN-38" style="edgeStyle=none;rounded=0;orthogonalLoop=1;jettySize=auto;html=1;startArrow=none;startFill=0;endArrow=none;endFill=0;" edge="1" parent="1" source="PrXNfEcg6D8ps-5a2DJN-39" target="PrXNfEcg6D8ps-5a2DJN-36">
          <mxGeometry relative="1" as="geometry">
            <mxPoint x="592.2486624742664" y="419.9985372662917" as="targetPoint" />
          </mxGeometry>
        </mxCell>
        <mxCell id="PrXNfEcg6D8ps-5a2DJN-43" style="edgeStyle=none;rounded=0;orthogonalLoop=1;jettySize=auto;html=1;startArrow=none;startFill=0;endArrow=none;endFill=0;" edge="1" parent="1" source="PrXNfEcg6D8ps-5a2DJN-39" target="PrXNfEcg6D8ps-5a2DJN-42">
          <mxGeometry relative="1" as="geometry" />
        </mxCell>
        <mxCell id="PrXNfEcg6D8ps-5a2DJN-39" value="High Student" style="rounded=0;whiteSpace=wrap;html=1;shadow=0;sketch=0;fillColor=default;gradientColor=none;" vertex="1" parent="1">
          <mxGeometry x="640" y="466.34000000000003" width="120" height="60" as="geometry" />
        </mxCell>
        <mxCell id="PrXNfEcg6D8ps-5a2DJN-40" style="edgeStyle=none;rounded=0;orthogonalLoop=1;jettySize=auto;html=1;startArrow=none;startFill=0;endArrow=none;endFill=0;" edge="1" parent="1" source="PrXNfEcg6D8ps-5a2DJN-41" target="PrXNfEcg6D8ps-5a2DJN-36">
          <mxGeometry relative="1" as="geometry">
            <mxPoint x="569.3933982822017" y="421.94660171779833" as="targetPoint" />
          </mxGeometry>
        </mxCell>
        <mxCell id="PrXNfEcg6D8ps-5a2DJN-41" value="Freshman" style="rounded=0;whiteSpace=wrap;html=1;shadow=0;sketch=0;fillColor=default;gradientColor=none;" vertex="1" parent="1">
          <mxGeometry x="400" y="466.34000000000003" width="120" height="60" as="geometry" />
        </mxCell>
        <mxCell id="PrXNfEcg6D8ps-5a2DJN-42" value="Major subject" style="ellipse;whiteSpace=wrap;html=1;shadow=0;sketch=0;fillColor=default;gradientColor=none;" vertex="1" parent="1">
          <mxGeometry x="780" y="410" width="100" height="40" as="geometry" />
        </mxCell>
        <mxCell id="PrXNfEcg6D8ps-5a2DJN-45" style="edgeStyle=none;rounded=0;orthogonalLoop=1;jettySize=auto;html=1;entryX=0.5;entryY=0;entryDx=0;entryDy=0;startArrow=none;startFill=0;endArrow=none;endFill=0;" edge="1" parent="1">
          <mxGeometry relative="1" as="geometry">
            <mxPoint x="697" y="526.34" as="sourcePoint" />
            <mxPoint x="697" y="566.34" as="targetPoint" />
          </mxGeometry>
        </mxCell>
        <mxCell id="PrXNfEcg6D8ps-5a2DJN-49" style="edgeStyle=none;rounded=0;orthogonalLoop=1;jettySize=auto;html=1;entryX=0.5;entryY=0;entryDx=0;entryDy=0;startArrow=none;startFill=0;endArrow=none;endFill=0;" edge="1" parent="1" source="PrXNfEcg6D8ps-5a2DJN-46" target="PrXNfEcg6D8ps-5a2DJN-48">
          <mxGeometry relative="1" as="geometry" />
        </mxCell>
        <mxCell id="PrXNfEcg6D8ps-5a2DJN-46" value="O" style="ellipse;whiteSpace=wrap;html=1;aspect=fixed;shadow=0;sketch=0;fillColor=default;gradientColor=none;" vertex="1" parent="1">
          <mxGeometry x="685" y="566.34" width="30" height="30" as="geometry" />
        </mxCell>
        <mxCell id="PrXNfEcg6D8ps-5a2DJN-47" style="edgeStyle=none;rounded=0;orthogonalLoop=1;jettySize=auto;html=1;entryX=0.5;entryY=0;entryDx=0;entryDy=0;startArrow=none;startFill=0;endArrow=none;endFill=0;" edge="1" parent="1">
          <mxGeometry relative="1" as="geometry">
            <mxPoint x="702" y="526.34" as="sourcePoint" />
            <mxPoint x="702" y="566.34" as="targetPoint" />
          </mxGeometry>
        </mxCell>
        <mxCell id="PrXNfEcg6D8ps-5a2DJN-48" value="Junior" style="rounded=0;whiteSpace=wrap;html=1;shadow=0;sketch=0;fillColor=default;gradientColor=none;" vertex="1" parent="1">
          <mxGeometry x="640" y="630" width="120" height="60" as="geometry" />
        </mxCell>
        <mxCell id="PrXNfEcg6D8ps-5a2DJN-53" style="edgeStyle=none;rounded=0;orthogonalLoop=1;jettySize=auto;html=1;startArrow=none;startFill=0;endArrow=none;endFill=0;" edge="1" parent="1" source="PrXNfEcg6D8ps-5a2DJN-50" target="PrXNfEcg6D8ps-5a2DJN-46">
          <mxGeometry relative="1" as="geometry" />
        </mxCell>
        <mxCell id="PrXNfEcg6D8ps-5a2DJN-55" style="edgeStyle=none;rounded=0;orthogonalLoop=1;jettySize=auto;html=1;entryX=0.5;entryY=0;entryDx=0;entryDy=0;startArrow=none;startFill=0;endArrow=none;endFill=0;" edge="1" parent="1" source="PrXNfEcg6D8ps-5a2DJN-50" target="PrXNfEcg6D8ps-5a2DJN-54">
          <mxGeometry relative="1" as="geometry" />
        </mxCell>
        <mxCell id="PrXNfEcg6D8ps-5a2DJN-50" value="Senior" style="rounded=0;whiteSpace=wrap;html=1;shadow=0;sketch=0;fillColor=default;gradientColor=none;" vertex="1" parent="1">
          <mxGeometry x="790" y="630" width="120" height="60" as="geometry" />
        </mxCell>
        <mxCell id="PrXNfEcg6D8ps-5a2DJN-52" style="edgeStyle=none;rounded=0;orthogonalLoop=1;jettySize=auto;html=1;startArrow=none;startFill=0;endArrow=none;endFill=0;" edge="1" parent="1" source="PrXNfEcg6D8ps-5a2DJN-51" target="PrXNfEcg6D8ps-5a2DJN-46">
          <mxGeometry relative="1" as="geometry" />
        </mxCell>
        <mxCell id="PrXNfEcg6D8ps-5a2DJN-51" value="Sophomore" style="rounded=0;whiteSpace=wrap;html=1;shadow=0;sketch=0;fillColor=default;gradientColor=none;" vertex="1" parent="1">
          <mxGeometry x="490" y="630" width="120" height="60" as="geometry" />
        </mxCell>
        <mxCell id="PrXNfEcg6D8ps-5a2DJN-54" value="Adviser" style="ellipse;whiteSpace=wrap;html=1;shadow=0;sketch=0;fillColor=default;gradientColor=none;" vertex="1" parent="1">
          <mxGeometry x="800" y="710" width="100" height="40" as="geometry" />
        </mxCell>
        <mxCell id="PrXNfEcg6D8ps-5a2DJN-56" value="" style="shape=requiredInterface;html=1;verticalLabelPosition=bottom;sketch=0;shadow=0;fillColor=default;gradientColor=none;rotation=35;" vertex="1" parent="1">
          <mxGeometry x="741" y="595.34" width="10" height="20" as="geometry" />
        </mxCell>
        <mxCell id="PrXNfEcg6D8ps-5a2DJN-57" value="" style="shape=requiredInterface;html=1;verticalLabelPosition=bottom;sketch=0;shadow=0;fillColor=none;gradientColor=none;rotation=-215;" vertex="1" parent="1">
          <mxGeometry x="645" y="597" width="10" height="20" as="geometry" />
        </mxCell>
        <mxCell id="PrXNfEcg6D8ps-5a2DJN-60" value="" style="shape=requiredInterface;html=1;verticalLabelPosition=bottom;sketch=0;shadow=0;fillColor=none;gradientColor=none;rotation=90;" vertex="1" parent="1">
          <mxGeometry x="695" y="602" width="10" height="20" as="geometry" />
        </mxCell>
        <mxCell id="PrXNfEcg6D8ps-5a2DJN-61" value="" style="shape=requiredInterface;html=1;verticalLabelPosition=bottom;sketch=0;shadow=0;fillColor=default;gradientColor=none;rotation=35;" vertex="1" parent="1">
          <mxGeometry x="616" y="432" width="10" height="20" as="geometry" />
        </mxCell>
        <mxCell id="PrXNfEcg6D8ps-5a2DJN-62" value="" style="shape=requiredInterface;html=1;verticalLabelPosition=bottom;sketch=0;shadow=0;fillColor=none;gradientColor=none;rotation=-215;" vertex="1" parent="1">
          <mxGeometry x="535" y="432.34000000000003" width="10" height="20" as="geometry" />
        </mxCell>
        <mxCell id="PrXNfEcg6D8ps-5a2DJN-63" value="" style="shape=requiredInterface;html=1;verticalLabelPosition=bottom;sketch=0;shadow=0;fillColor=default;gradientColor=none;rotation=35;" vertex="1" parent="1">
          <mxGeometry x="497" y="263" width="10" height="20" as="geometry" />
        </mxCell>
        <mxCell id="PrXNfEcg6D8ps-5a2DJN-64" value="" style="shape=requiredInterface;html=1;verticalLabelPosition=bottom;sketch=0;shadow=0;fillColor=none;gradientColor=none;rotation=-215;" vertex="1" parent="1">
          <mxGeometry x="419" y="263" width="10" height="20" as="geometry" />
        </mxCell>
        <mxCell id="PrXNfEcg6D8ps-5a2DJN-66" style="edgeStyle=none;rounded=0;orthogonalLoop=1;jettySize=auto;html=1;startArrow=none;startFill=0;endArrow=none;endFill=0;" edge="1" parent="1" source="PrXNfEcg6D8ps-5a2DJN-65" target="PrXNfEcg6D8ps-5a2DJN-32">
          <mxGeometry relative="1" as="geometry" />
        </mxCell>
        <mxCell id="PrXNfEcg6D8ps-5a2DJN-65" value="Performance" style="ellipse;whiteSpace=wrap;html=1;shadow=0;sketch=0;fillColor=default;gradientColor=none;" vertex="1" parent="1">
          <mxGeometry x="412" y="316.25" width="85" height="27.5" as="geometry" />
        </mxCell>
        <mxCell id="PrXNfEcg6D8ps-5a2DJN-68" style="edgeStyle=none;rounded=0;orthogonalLoop=1;jettySize=auto;html=1;startArrow=none;startFill=0;endArrow=none;endFill=0;" edge="1" parent="1" source="PrXNfEcg6D8ps-5a2DJN-67" target="PrXNfEcg6D8ps-5a2DJN-32">
          <mxGeometry relative="1" as="geometry" />
        </mxCell>
        <mxCell id="PrXNfEcg6D8ps-5a2DJN-67" value="Seniority level" style="ellipse;whiteSpace=wrap;html=1;shadow=0;sketch=0;fillColor=default;gradientColor=none;" vertex="1" parent="1">
          <mxGeometry x="285" y="240" width="110" height="35" as="geometry" />
        </mxCell>
        <mxCell id="PrXNfEcg6D8ps-5a2DJN-73" style="edgeStyle=none;rounded=0;orthogonalLoop=1;jettySize=auto;html=1;startArrow=none;startFill=0;endArrow=none;endFill=0;" edge="1" parent="1" source="PrXNfEcg6D8ps-5a2DJN-70" target="PrXNfEcg6D8ps-5a2DJN-72">
          <mxGeometry relative="1" as="geometry" />
        </mxCell>
        <mxCell id="PrXNfEcg6D8ps-5a2DJN-75" style="edgeStyle=none;rounded=0;orthogonalLoop=1;jettySize=auto;html=1;startArrow=none;startFill=0;endArrow=none;endFill=0;" edge="1" parent="1" source="PrXNfEcg6D8ps-5a2DJN-70" target="PrXNfEcg6D8ps-5a2DJN-74">
          <mxGeometry relative="1" as="geometry" />
        </mxCell>
        <mxCell id="PrXNfEcg6D8ps-5a2DJN-76" style="edgeStyle=none;rounded=0;orthogonalLoop=1;jettySize=auto;html=1;startArrow=none;startFill=0;endArrow=none;endFill=0;" edge="1" parent="1">
          <mxGeometry relative="1" as="geometry">
            <mxPoint x="195.00000000000193" y="326" as="sourcePoint" />
            <mxPoint x="279.9999999999999" y="326" as="targetPoint" />
          </mxGeometry>
        </mxCell>
        <mxCell id="PrXNfEcg6D8ps-5a2DJN-70" value="d" style="ellipse;whiteSpace=wrap;html=1;aspect=fixed;shadow=0;sketch=0;fillColor=default;gradientColor=none;" vertex="1" parent="1">
          <mxGeometry x="165" y="315" width="30" height="30" as="geometry" />
        </mxCell>
        <mxCell id="PrXNfEcg6D8ps-5a2DJN-72" value="Engineer" style="rounded=0;whiteSpace=wrap;html=1;shadow=0;sketch=0;fillColor=default;gradientColor=none;" vertex="1" parent="1">
          <mxGeometry x="-30" y="275" width="120" height="60" as="geometry" />
        </mxCell>
        <mxCell id="PrXNfEcg6D8ps-5a2DJN-74" value="Secretary" style="rounded=0;whiteSpace=wrap;html=1;shadow=0;sketch=0;fillColor=default;gradientColor=none;" vertex="1" parent="1">
          <mxGeometry x="-30" y="367" width="120" height="60" as="geometry" />
        </mxCell>
        <mxCell id="PrXNfEcg6D8ps-5a2DJN-77" style="edgeStyle=none;rounded=0;orthogonalLoop=1;jettySize=auto;html=1;startArrow=none;startFill=0;endArrow=none;endFill=0;" edge="1" parent="1">
          <mxGeometry relative="1" as="geometry">
            <mxPoint x="195.00000000000193" y="332" as="sourcePoint" />
            <mxPoint x="279.9999999999999" y="332" as="targetPoint" />
          </mxGeometry>
        </mxCell>
        <mxCell id="PrXNfEcg6D8ps-5a2DJN-78" value="Company department member" style="rounded=0;whiteSpace=wrap;html=1;shadow=0;sketch=0;fillColor=default;gradientColor=none;" vertex="1" parent="1">
          <mxGeometry x="110" y="215" width="120" height="60" as="geometry" />
        </mxCell>
        <mxCell id="PrXNfEcg6D8ps-5a2DJN-81" style="edgeStyle=none;rounded=0;orthogonalLoop=1;jettySize=auto;html=1;startArrow=none;startFill=0;endArrow=none;endFill=0;" edge="1" parent="1" source="PrXNfEcg6D8ps-5a2DJN-80" target="PrXNfEcg6D8ps-5a2DJN-78">
          <mxGeometry relative="1" as="geometry" />
        </mxCell>
        <mxCell id="PrXNfEcg6D8ps-5a2DJN-80" value="Department Name" style="ellipse;whiteSpace=wrap;html=1;shadow=0;sketch=0;fillColor=default;gradientColor=none;" vertex="1" parent="1">
          <mxGeometry x="115" y="150" width="110" height="35" as="geometry" />
        </mxCell>
        <mxCell id="PrXNfEcg6D8ps-5a2DJN-82" value="" style="shape=requiredInterface;html=1;verticalLabelPosition=bottom;sketch=0;shadow=0;fillColor=none;gradientColor=none;rotation=-215;" vertex="1" parent="1">
          <mxGeometry x="131" y="339" width="10" height="20" as="geometry" />
        </mxCell>
        <mxCell id="PrXNfEcg6D8ps-5a2DJN-84" value="" style="shape=requiredInterface;html=1;verticalLabelPosition=bottom;sketch=0;shadow=0;fillColor=none;gradientColor=none;rotation=-165;" vertex="1" parent="1">
          <mxGeometry x="127" y="313" width="10" height="20" as="geometry" />
        </mxCell>
        <mxCell id="PrXNfEcg6D8ps-5a2DJN-85" value="" style="shape=requiredInterface;html=1;verticalLabelPosition=bottom;sketch=0;shadow=0;fillColor=none;gradientColor=none;rotation=-144;" vertex="1" parent="1">
          <mxGeometry x="247" y="277" width="10" height="20" as="geometry" />
        </mxCell>
        <mxCell id="PrXNfEcg6D8ps-5a2DJN-91" style="edgeStyle=none;rounded=0;orthogonalLoop=1;jettySize=auto;html=1;startArrow=none;startFill=0;endArrow=none;endFill=0;" edge="1" parent="1" source="PrXNfEcg6D8ps-5a2DJN-86" target="PrXNfEcg6D8ps-5a2DJN-89">
          <mxGeometry relative="1" as="geometry" />
        </mxCell>
        <mxCell id="PrXNfEcg6D8ps-5a2DJN-92" style="edgeStyle=none;rounded=0;orthogonalLoop=1;jettySize=auto;html=1;startArrow=none;startFill=0;endArrow=none;endFill=0;" edge="1" parent="1" source="PrXNfEcg6D8ps-5a2DJN-86" target="PrXNfEcg6D8ps-5a2DJN-90">
          <mxGeometry relative="1" as="geometry" />
        </mxCell>
        <mxCell id="PrXNfEcg6D8ps-5a2DJN-86" value="d" style="ellipse;whiteSpace=wrap;html=1;aspect=fixed;shadow=0;sketch=0;fillColor=default;gradientColor=none;" vertex="1" parent="1">
          <mxGeometry x="225" y="430" width="30" height="30" as="geometry" />
        </mxCell>
        <mxCell id="PrXNfEcg6D8ps-5a2DJN-88" style="edgeStyle=none;rounded=0;orthogonalLoop=1;jettySize=auto;html=1;startArrow=none;startFill=0;endArrow=none;endFill=0;" edge="1" parent="1">
          <mxGeometry relative="1" as="geometry">
            <mxPoint x="316.0558830848694" y="360" as="sourcePoint" />
            <mxPoint x="250" y="434" as="targetPoint" />
          </mxGeometry>
        </mxCell>
        <mxCell id="PrXNfEcg6D8ps-5a2DJN-98" style="edgeStyle=none;rounded=0;orthogonalLoop=1;jettySize=auto;html=1;startArrow=none;startFill=0;endArrow=none;endFill=0;" edge="1" parent="1" source="PrXNfEcg6D8ps-5a2DJN-89" target="PrXNfEcg6D8ps-5a2DJN-97">
          <mxGeometry relative="1" as="geometry" />
        </mxCell>
        <mxCell id="PrXNfEcg6D8ps-5a2DJN-89" value="Hourly &amp;nbsp;&lt;br&gt;Employee" style="rounded=0;whiteSpace=wrap;html=1;shadow=0;sketch=0;fillColor=default;gradientColor=none;" vertex="1" parent="1">
          <mxGeometry x="76" y="520" width="120" height="60" as="geometry" />
        </mxCell>
        <mxCell id="PrXNfEcg6D8ps-5a2DJN-96" style="edgeStyle=none;rounded=0;orthogonalLoop=1;jettySize=auto;html=1;startArrow=none;startFill=0;endArrow=none;endFill=0;" edge="1" parent="1" source="PrXNfEcg6D8ps-5a2DJN-90" target="PrXNfEcg6D8ps-5a2DJN-95">
          <mxGeometry relative="1" as="geometry" />
        </mxCell>
        <mxCell id="PrXNfEcg6D8ps-5a2DJN-90" value="Salaried &lt;br&gt;Employee" style="rounded=0;whiteSpace=wrap;html=1;shadow=0;sketch=0;fillColor=default;gradientColor=none;" vertex="1" parent="1">
          <mxGeometry x="220" y="520" width="120" height="60" as="geometry" />
        </mxCell>
        <mxCell id="PrXNfEcg6D8ps-5a2DJN-93" value="" style="shape=requiredInterface;html=1;verticalLabelPosition=bottom;sketch=0;shadow=0;fillColor=none;gradientColor=none;rotation=65;" vertex="1" parent="1">
          <mxGeometry x="249" y="470.00000000000006" width="10" height="20" as="geometry" />
        </mxCell>
        <mxCell id="PrXNfEcg6D8ps-5a2DJN-94" value="" style="shape=requiredInterface;html=1;verticalLabelPosition=bottom;sketch=0;shadow=0;fillColor=none;gradientColor=none;rotation=132;" vertex="1" parent="1">
          <mxGeometry x="203" y="466.34000000000003" width="10" height="20" as="geometry" />
        </mxCell>
        <mxCell id="PrXNfEcg6D8ps-5a2DJN-95" value="Salary" style="ellipse;whiteSpace=wrap;html=1;shadow=0;sketch=0;fillColor=default;gradientColor=none;dashed=1;" vertex="1" parent="1">
          <mxGeometry x="237.5" y="610" width="85" height="27.5" as="geometry" />
        </mxCell>
        <mxCell id="PrXNfEcg6D8ps-5a2DJN-97" value="Pay-Scale" style="ellipse;whiteSpace=wrap;html=1;shadow=0;sketch=0;fillColor=default;gradientColor=none;dashed=1;" vertex="1" parent="1">
          <mxGeometry x="93.5" y="615.34" width="85" height="27.5" as="geometry" />
        </mxCell>
      </root>
    </mxGraphModel>
  </diagram>
</mxfile>
